<svg xmlns="http://www.w3.org/2000/svg" width="512.000000pt" height="512.000000pt" viewBox="0 0 512.000000 512.000000" preserveAspectRatio="xMidYMid meet">
  <metadata>Created by potrace 1.16, written by Peter Selinger 2001-2019</metadata>
  <g transform="translate(0.000000,512.000000) scale(0.100000,-0.100000)" fill="#000000" stroke="none">
    <path d="M2377 5025 c-302 -60 -546 -280 -632 -569 -41 -137 -38 -340 7 -485 85 -276 296 -493 568 -583 89 -30 104 -32 240 -32 136 0 151 2 240 32 488 163 739 715 534 1178 -82 186 -259 346 -467 424 -130 49 -344 64 -490 35z m316 -340 c316 -82 462 -402 315 -690 -111 -216 -315 -332 -520 -297 -273 47 -481 351 -424 620 37 178 173 316 359 367 69 18 199 19 270 0z"/>
    <path d="M2465 3324 c-538 -38 -1021 -219 -1232 -461 -110 -126 -281 -375 -493 -713 -135 -216 -651 -1073 -678 -1126 -59 -116 -80 -310 -47 -439 59 -234 250 -426 481 -485 76 -20 119 -20 2064 -20 1945 0 1988 0 2064 20 181 46 344 177 424 340 55 111 72 183 72 300 0 102 -23 207 -62 284 -27 53 -543 910 -678 1126 -212 338 -383 587 -493 713 -164 188 -497 342 -912 421 -152 29 -394 48 -510 40z m348 -360 c54 -7 138 -23 188 -35 l90 -21 -423 -416 c-233 -229 -498 -490 -590 -580 l-166 -164 -4 203 c-3 195 -4 205 -26 237 -30 41 -70 62 -122 62 -54 0 -91 -20 -121 -67 -14 -21 -122 -213 -239 -426 -204 -372 -215 -389 -239 -384 -14 3 -128 13 -252 23 l-226 18 97 160 c307 511 583 922 715 1063 126 137 359 239 702 309 218 44 398 49 616 18z m662 -206 c58 -35 109 -76 152 -122 129 -139 410 -558 714 -1063 96 -160 98 -163 71 -163 -15 0 -122 -12 -239 -26 -117 -15 -218 -24 -226 -21 -7 3 -109 180 -227 393 -117 214 -225 406 -239 427 -30 47 -67 67 -121 67 -52 0 -92 -21 -122 -62 l-23 -33 -3 -446 -3 -446 -156 -19 -156 -18 -451 38 c-589 49 -536 41 -536 82 0 30 56 88 726 748 399 394 731 716 738 716 7 0 52 -24 101 -52z m105 -1355 c25 -45 42 -84 40 -86 -3 -2 -31 -7 -62 -11 l-58 -6 0 122 0 123 18 -30 c-10 -16 -38 -67 -62 -112z m-2464 -358 c393 -32 1627 -143 1739 -157 17 -3 26 -31 71 -236 l51 -232 -1201 2 -1201 3 -49 25 c-63 32 -128 97 -158 157 -19 39 -23 63 -22 133 1 161 67 248 244 316 42 17 229 13 526 -11z m3471 -10 c72 -32 130 -89 164 -161 33 -71 33 -200 1 -267 -30 -60 -95 -125 -158 -157 l-49 -25 -610 -3 -610 -2 -53 246 c-30 135 -51 248 -48 252 4 3 262 39 574 78 640 82 689 85 789 39z"/>
  </g>
</svg>